<svg xmlns="http://www.w3.org/2000/svg" width="240" height="200" fill="none"><path fill="#321833" d="m71.656 177.652-37.493-52.545c-3.75-5.254-2.637-11.182 2.78-14.818l4.516-3.03C54.1 98.774 62.993 85.035 66.052 68.735c4.45-23.708 18.413-43.441 38.903-55.898C144.13-10.866 196.703-.82 223.851 35.355l.625.876c27.495 38.533 17.484 91.878-22.247 118.544-18.963 12.727-42.925 18.448-66.468 13.526-15.903-3.573-31.669.533-44.311 9.018l-4.515 3.03c-5.418 3.636-11.53 2.558-15.279-2.697Zm-13.185-55.908 24.996 35.03c16.878-10.033 36.325-12.724 57.091-9.824 17.431 3.843 34.725.006 49.173-9.69 29.798-20 37.307-60.008 16.685-88.908l-.625-.876C185.517 20.934 146.07 12.44 116.55 30.958c-15.073 8.82-25.146 24.648-29.108 41.553-3.893 20.745-14.245 38.054-28.97 49.233Z"/><path fill="#321833" d="M7.762 181.684c-13.747-19.267-8.742-45.939 11.124-59.272l18.06-12.121c5.417-3.636 11.529-2.557 15.278 2.697l37.493 52.545c3.75 5.255 2.637 11.182-2.78 14.818l-18.06 12.121C49.01 205.805 21.51 200.95 7.762 181.684Zm32.651-47.818-9.03 6.061c-9.932 6.666-12.435 20.003-5.561 29.636 6.874 9.633 20.624 12.06 30.557 5.394l9.03-6.061-24.996-35.03ZM124.462 64.505c-3.749-5.255-2.637-11.182 2.781-14.818 19.866-13.333 47.367-8.479 61.115 10.788 3.749 5.254 2.637 11.182-2.781 14.818-5.418 3.636-11.529 2.557-15.279-2.697-6.874-9.634-20.624-12.06-30.557-5.394-5.418 3.636-11.53 2.557-15.279-2.697Z"/></svg>