<svg xmlns="http://www.w3.org/2000/svg" width="29" height="28" fill="none"><path stroke="#D22AE8" stroke-linecap="round" stroke-linejoin="round" stroke-width=".59" d="M14.667 1.458A12.542 12.542 0 0 0 10.701 25.9c.63.117.857-.268.857-.583v-2.13c-3.5.759-4.223-1.68-4.223-1.68a3.325 3.325 0 0 0-1.418-1.86c-1.137-.776.088-.765.088-.765a2.637 2.637 0 0 1 1.919 1.295c1.12 1.92 2.917 1.365 3.652 1.045a2.689 2.689 0 0 1 .799-1.68c-2.789-.315-5.717-1.389-5.717-6.195A4.836 4.836 0 0 1 7.953 9.98a4.48 4.48 0 0 1 .123-3.32s1.05-.338 3.447 1.284c2.055-.56 4.222-.56 6.277 0 2.397-1.622 3.447-1.283 3.447-1.283a4.515 4.515 0 0 1 .123 3.319 4.83 4.83 0 0 1 1.289 3.366c0 4.818-2.917 5.874-5.723 6.189a2.987 2.987 0 0 1 .852 2.333v3.442c0 .414.228.723.863.583a12.542 12.542 0 0 0-3.984-24.436Z" clip-rule="evenodd"/></svg>