<svg xmlns="http://www.w3.org/2000/svg" width="216" height="210" fill="none"><path fill="#2A0B4A" d="m145.432 5.874 62.804 54.31c7.004 6.056 9.516 15.8 6.304 24.453l-20.66 55.656c-13.132 35.38-45.201 60.276-82.835 64.308l-41.399 4.435a16.719 16.719 0 0 1-13.975-5.187l-28.478-30.374C1.305 145.864-6.752 106.073 6.381 70.693l20.66-55.655C30.253 6.385 38.514.64 47.773.62l83.03-.176a22.296 22.296 0 0 1 14.629 5.43Zm-14.529 16.72-83.029.177-20.66 55.656C17 105.944 23.268 136.892 43.403 158.368l26.579 28.349 38.639-4.14c29.271-3.136 54.213-22.5 64.427-50.017l20.66-55.656-62.804-54.31Zm-15.148 40.808c11.506 4.27 17.384 17.026 13.129 28.49-2.633 7.092-8.527 12.027-15.364 13.75l-1.727.364-12.588 33.911c-2.128 5.732-8.516 8.647-14.27 6.512-5.341-1.983-8.257-7.624-6.943-13.009l.38-1.236 12.587-33.912c-4.894-5.901-6.594-14.164-3.742-21.847 4.255-11.463 17.032-17.294 28.538-13.023Z"/></svg>