<svg xmlns="http://www.w3.org/2000/svg" width="301" height="201" fill="none"><path fill="#341A50" d="M179.954 16.103a132.99 132.99 0 0 0-51.499-7.153 133.224 133.224 0 0 0-50.338 13.138 133.556 133.556 0 0 0-41.514 31.427 133.79 133.79 0 0 0-26.369 44.933 133.797 133.797 0 0 0-7.266 44.186 119.84 119.84 0 0 1 5.84-26.756C19.23 85.924 41.099 61.328 69.6 47.499a119.192 119.192 0 0 1 91.195-5.361 119.137 119.137 0 0 1 56.062 41.018l30.275-14.689a133.047 133.047 0 0 0-67.177-52.364Zm82.766 71.249c-2.656-.874-5.695-.776-8.566.334l-124.862 48.243c-5.743 2.22-20.014 9.674-10.354 29.697 9.662 20.026 24.352 13.406 29.653 10.269l115.222-68.189c5.3-3.137 7.846-9.316 5.17-14.862-1.338-2.773-3.608-4.618-6.263-5.492Zm6.207 44.662-28.59 13.872a119.822 119.822 0 0 1-5.835 47.4l21.138 7.353a133.618 133.618 0 0 0 6.285-14.635 133.782 133.782 0 0 0 7.002-53.99Z"/></svg>