<svg xmlns="http://www.w3.org/2000/svg" width="64" height="64" fill="none"><path fill="#BFC8D0" fill-rule="evenodd" d="M32 62c15.464 0 28-12.536 28-28S47.464 6 32 6 4 18.536 4 34c0 5.022 1.322 9.735 3.637 13.81L4 62l14.63-3.392A27.876 27.876 0 0 0 32 62Zm0-4.308c13.085 0 23.692-10.607 23.692-23.692S45.085 10.308 32 10.308 8.308 20.915 8.308 34c0 5.052 1.581 9.735 4.276 13.58l-2.123 7.958 8.099-2.024A23.582 23.582 0 0 0 32 57.692Z" clip-rule="evenodd"/><path fill="url(#a)" d="M56 32c0 13.255-10.745 24-24 24a23.89 23.89 0 0 1-13.615-4.233l-8.203 2.051 2.15-8.061A23.89 23.89 0 0 1 8 32C8 18.745 18.745 8 32 8s24 10.745 24 24Z"/><path fill="#fff" fill-rule="evenodd" d="M32 60c15.464 0 28-12.536 28-28S47.464 4 32 4 4 16.536 4 32c0 5.022 1.322 9.735 3.637 13.81L4 60l14.63-3.392A27.876 27.876 0 0 0 32 60Zm0-4.308c13.085 0 23.692-10.607 23.692-23.692S45.085 8.308 32 8.308 8.308 18.915 8.308 32c0 5.052 1.581 9.735 4.276 13.58l-2.123 7.958 8.099-2.024A23.582 23.582 0 0 0 32 55.692Z" clip-rule="evenodd"/><path fill="#fff" d="M25 19c-.666-1.337-1.687-1.219-2.719-1.219-1.843 0-4.718 2.209-4.718 6.319 0 3.369 1.484 7.056 6.486 12.572 4.827 5.324 11.17 8.078 16.435 7.984 5.266-.094 6.35-4.625 6.35-6.155 0-.679-.422-1.017-.711-1.109-1.795-.861-5.104-2.466-5.857-2.767-.753-.302-1.147.106-1.391.328-.683.65-2.036 2.569-2.5 3-.463.431-1.154.213-1.442.05-1.058-.425-3.927-1.7-6.214-3.918-2.828-2.741-2.994-3.685-3.527-4.524-.426-.672-.114-1.084.042-1.264.61-.703 1.451-1.789 1.829-2.328.377-.54.077-1.359-.102-1.869-.773-2.194-1.428-4.03-1.961-5.1Z"/><defs><linearGradient id="a" x1="53" x2="8" y1="14" y2="56" gradientUnits="userSpaceOnUse"><stop stop-color="#5BD066"/><stop offset="1" stop-color="#27B43E"/></linearGradient></defs></svg>