<svg xmlns="http://www.w3.org/2000/svg" width="32" height="32" fill="none"><rect width="32" height="32" fill="url(#a)" rx="8"/><path fill="#FB8DF6" d="M28.4 19.2c.4-5-.3-7.7-1-9.2V8.4H4.6V10c-.7 1.5-1.4 4.2-1 9.2.2 1.5.1 3-.2 4.4h10.5c1.2-2.3 1-4.1 2.1-7.1 1.2 3 1 4.8 2.1 7.1h10.5c-.3-1.4-.4-3-.2-4.4Z"/><path fill="#EB6EE6" d="M4.5 8.4h23v2.3h-23V8.4Z"/><path fill="#F517EC" d="M10 20.3h.3c0 .2-.3.1-.3 0Z"/><path fill="#FDD835" d="M10 20.8v-.5c0 .1.3.2.3 0-.1 1.1-1.3 1.8-2.5 1.5-1.7-.3-2-2.2-2-2.3 0 0 .3-.2.4.1.8 1.5 3.4 1.6 3.7 1.3v-.1Z"/><path fill="#000" d="M6.3 20.9c-.4-.7-.5-1.3-.5-1.4H6s.2 2 1.9 2.3c.6.1 1.3 0 1.8-.4.4-.2.6-.6.7-1H10v.4-.5h.3c0 .5-.3 1-.7 1.2a2.4 2.4 0 0 1-3.3-.6Z"/><path fill="#000" d="M5.8 19.5h.3l.2.1c.5 1 1.7 1.3 2.2 1.4.7 0 1.2 0 1.4-.2-.1.3-.7.3-1.4.2-.5 0-1.8-.3-2.3-1.4l-.1-.1h-.2Z"/><path fill="#000" d="m9.2 21.4.1-.1h.1l.5-.5c0 .2-.2.4-.5.5h-.1ZM8.4 21.5l.6-.1-.6.1ZM6.2 20.2a2 2 0 0 1-.4-.7H6c0 .4.8 1.7 2.1 2a14.2 14.2 0 0 0 .2 0H8c-.7-.1-1.2-.5-1.5-.9-.2-.1-.3-.3-.3-.4ZM10 20.4v-.1h.3v.1H10Z"/><path fill="#F517EC" d="m20.3 19.5-.3.1s.2-.2.3-.1Z"/><path fill="#FDD835" d="M20 19c0 .2.2.4.3.4l-.3.2c-.7-.8-.4-2 .5-2.8 1.4-1.1 3 0 3 0s0 .3-.3.2c-1.6-.4-3.4 1.5-3.3 2Z"/><path fill="#000" d="M22.2 16.3c.8 0 1.3.4 1.4.5-.1 0-1.7-1-3 0-.5.4-.9 1-1 1.6 0 .4.2.9.4 1.2l.2-.1v-.1l-.3-.3.3.2v.1s.1 0 0 0l-.1.3H20c-.3-.4-.4-.8-.4-1.3a2.4 2.4 0 0 1 2.6-2.1Z"/><path fill="#000" d="M23.5 16.8v.2h-.3c-1-.2-2 .5-2.5.9s-.8.9-.8 1v.2-.1c0-.2.3-.7.8-1.2.4-.3 1.4-1.1 2.5-.8h.3v-.2Z"/><path fill="#000" d="M20 18.1v.2c-.1.4-.1.6 0 .8-.2-.2-.2-.4-.1-.7v-.2ZM20.4 17.4v.1l-.3.5.2-.5ZM22.8 16.6c.4 0 .6 0 .8.2-.4-.2-2-.5-3 .4 0 .1 0 .1 0 0 .6-.5 1.3-.7 1.7-.7h.5ZM20.2 19.4l-.2.2c0-.1 0-.2.2-.2Z"/><path fill="#F517EC" d="M22.1 12.1h.3c0 .2-.3.2-.3 0Z"/><path fill="#FDD835" d="M22.1 12.6v-.4h.3c0 1-1 1.9-2.2 1.8-1.8 0-2.3-1.9-2.3-2 0 0 .2-.2.4.1 1 1.4 3.5 1 3.8.6Z"/><path fill="#000" d="M18.6 13.3c-.5-.5-.7-1.2-.7-1.2s.5 1.8 2.3 1.9c.6 0 1.3-.2 1.7-.6.3-.4.5-.8.5-1.2h-.2v.4s-.1 0 0 0l-.1-.3v-.1h.3c0 .4-.1.9-.5 1.2a2.4 2.4 0 0 1-3.3 0Z"/><path fill="#000" d="M17.9 12h.4c.7 1 2 1 2.5 1 .7 0 1.2-.1 1.3-.3-.1.2-.7.4-1.3.4-.6 0-1.9 0-2.5-1L18 12h-.2Z"/><path fill="#000" d="m21.5 13.3.2-.1c.2-.2.4-.4.4-.6 0 .3-.1.5-.4.6v.1h-.2ZM20.7 13.6l.6-.2-.5.2ZM18.3 12.7a2 2 0 0 1-.4-.6c.2.3 1.1 1.5 2.4 1.5h.2-.2c-.7 0-1.3-.3-1.6-.6-.2 0-.3-.2-.4-.3ZM22.1 12.2h.3c0 .1-.2.1-.2 0Z"/><path fill="#F517EC" d="m7.8 16.4-.1.2c-.2 0 0-.3.1-.2Z"/><path fill="#FDD835" d="m7.4 16.1.4.3c0-.1-.3.2-.1.2-1-.5-1-1.9-.4-2.9 1-1.4 2.8-.8 3-.8 0 0 0 .3-.3.3-1.7 0-2.8 2.4-2.6 2.8v.1Z"/><path fill="#000" d="M8.8 12.8c.7-.2 1.4 0 1.4 0v.1s-1.8-.6-2.9.8c-.3.6-.5 1.2-.4 1.8.1.5.4.9.8 1v-.1l-.3-.3.3.2h.1l-.1.3c-.5-.2-.7-.6-.8-1a2.4 2.4 0 0 1 1.9-2.8Z"/><path fill="#000" d="M10.2 12.9v.2l-.2.1c-1.2 0-2 1-2.2 1.5-.4.6-.5 1.2-.4 1.3v.1c-.2-.3 0-.8.4-1.4.2-.4 1-1.5 2.2-1.5l.2-.1v-.2Z"/><path fill="#000" d="M7.2 15.2v.2c0 .3 0 .6.2.7-.2-.1-.3-.4-.3-.7v-.2ZM7.4 14.4l-.2.6.1-.6ZM9.5 12.9h.7c-.4 0-2 0-2.6 1.2v.1h-.1V14c.4-.7 1-1 1.5-1.1l.5-.1ZM7.8 16.3s0 .1 0 0l-.2.3h.1-.1l.1-.3Z"/><path fill="#F517EC" d="m14 18.2.3.2c0 .2-.3 0-.2-.2Z"/><path fill="#FDD835" d="m13.7 18.6.4-.4c-.1.1.1.4.2.2-.8.8-2 .7-3-.2-1.1-1.3-.2-3-.2-3s.3 0 .3.3c-.3 1.7 1.8 3.2 2.3 3.1Z"/><path fill="#000" d="M10.7 16.6c0-.8.4-1.4.4-1.4 0 .1-1 1.7.3 3 .4.5 1 .7 1.7.7.4 0 .8-.1 1.1-.5l-.1-.1H14l-.2.3c-.1 0 0 0 0 0s0-.2.2-.3v-.1c.2 0 .3.2.3.2-.3.4-.8.6-1.2.6a2.4 2.4 0 0 1-2.4-2.4Z"/><path fill="#000" d="M11.1 15.2h.2v.3c0 1.1.8 2 1.2 2.4.5.5 1 .7 1.1.7h.1c-.3.1-.8-.2-1.3-.6-.4-.4-1.3-1.3-1-2.5l-.1-.2H11Z"/><path fill="#000" d="M12.8 18.7h.2l.7-.1c-.1.1-.4.2-.7.1h-.2ZM12 18.3h.1l.5.3c-.2 0-.3-.1-.5-.3ZM11 16l.1-.8c-.1.4-.3 2 .7 2.8a17.7 17.7 0 0 0 0 .2V18c-.6-.5-.8-1.2-.8-1.6V16ZM14 18.3l.2.1h.1v.1c-.2 0-.2 0-.3-.2Z"/><path fill="#F517EC" d="m27 22.3.2.2c0 .1-.3-.2-.1-.2Z"/><path fill="#FDD835" d="m26.6 22.5.4-.2s.1.3.2.2c-.9.6-2.2.2-2.8-.8-1-1.6.4-3 .4-3s.3 0 .2.3c-.6 1.6 1 3.6 1.5 3.6h.1Z"/><path fill="#000" d="M24.1 20c.2-.8.6-1.3.7-1.3 0 0-1.3 1.5-.4 3 .4.5 1 .9 1.5 1 .5.1 1 0 1.3-.2l-.2-.2-.4.3.3-.3h.1l.2.2c-.4.3-.8.4-1.3.3a2.4 2.4 0 0 1-1.8-2.9Z"/><path fill="#000" d="M24.8 18.7h.2v.3c-.4 1 .2 2.2.5 2.6.4.6.9 1 1 1h.1c0-.1 0 0 0 0-.3 0-.8-.4-1.1-1-.3-.4-1-1.5-.6-2.6v-.2h-.1v-.1Z"/><path fill="#000" d="M25.7 22.4h.2c.3.2.5.2.7.1H25.8v-.1ZM25 21.9h.1l.5.4c-.2 0-.4-.2-.5-.4ZM24.5 19.4c0-.4.2-.6.3-.7-.2.3-.7 1.8 0 2.9h.1v.1l-.1-.1c-.4-.6-.4-1.3-.4-1.7v-.5ZM27 22.3l.1.2h.1l-.2-.1v-.1Z"/><path fill="#4A4752" d="m14.7 10.3-.4.8c-.3.8-.4 1.5-.3 2.3.1 1 .5 2 1 2.8.1.1.3.1.4 0V16c-.6-1-1-2-1-3.2l.1-1c0-.1 0 0 0 0v-.2l.2-.2.1-.4v-.1l.2-.1v-.2c.3-.2 0-.5-.3-.3Z"/><path fill="#3E4347" d="m15.6 10.4.3.5.4 1.4c.3 1.2.4 2.5.4 3.8 0 .3 0 .4.2.4.1 0 .2-.1.2-.3a16.4 16.4 0 0 0-.9-5.7 3 3 0 0 0-.3-.6l-.3.5Z"/><defs><linearGradient id="a" x1="16" x2="16" y1="3.2" y2="25.5" gradientUnits="userSpaceOnUse"><stop stop-color="#8A2A99"/><stop offset="1" stop-color="#8DFFF8"/></linearGradient></defs></svg>